:SAMPLES-PER-SECOND 30
:FULLY-SPECIFIED
:DEGREES
470
root  -36.8855 39.6456 -14.1112 -8.85031 -51.9092 3.45859
RightUpLeg  4.17118 -29.4199 -8.38064
RightLeg  45.8233 -0.687382 -1.09412
RightFoot  -5.42602 -0.759465 14.0561
RightToes  0.00048216 0.542163 -0.142577
Spine  19.8174 0.323245 2.60541
Spine1  13.1635 4.11849 -9.9473
HEad  -4.08028 49.7331 -21.7515
LeftShoulder1  8.71828 -12.9656 -46.1702
LeftArm  -15.5969 22.4639 -18.1737
LeftForeArm  15.9932 -13.3658 -3.2081
LeftHand  -0.25398 0.0180481 5.50724
RightShoulder  5.54068 10.0156 35.0216
RightArm  3.47407 -19.5849 35.6215
RightForeArm  -17.0726 24.821 6.1403
RightHand  -1.04259 1.09194 -18.7061
LeftUpLeg  -8.31391 8.84326 -8.5023
LeftLeg  7.66093 39.5276 -4.33424
LeftFoot  -6.24344 -0.544908 13.0167
LeftToes  1.06246e-005 4.65855e-005 -8.185e-006
471
root  -35.8114 39.4861 -13.9555 -9.02695 -55.2514 3.87865
RightUpLeg  7.96576 -28.5217 -7.73761
RightLeg  40.8976 0.437077 0.140765
RightFoot  -7.81718 -0.51367 14.5939
RightToes  0.00048216 0.542163 -0.142577
Spine  18.324 0.634299 3.62545
Spine1  12.9572 4.7404 -10.4802
HEad  -4.7548 47.6264 -21.7651
LeftShoulder1  8.58808 -12.7945 -45.9511
LeftArm  -15.4352 24.6388 -19.3216
LeftForeArm  16.3518 -12.5177 -3.13221
LeftHand  -0.25398 0.0180481 5.50724
RightShoulder  5.44153 9.84643 34.8013
RightArm  2.08448 -18.7771 35.2219
RightForeArm  -16.9466 25.468 6.28517
RightHand  -1.05107 1.07831 -18.8932
LeftUpLeg  -8.67007 5.63137 -8.5085
LeftLeg  3.33364 45.1217 -7.86001
LeftFoot  -4.91641 -0.829928 15.1919
LeftToes  1.06246e-005 4.65855e-005 -8.185e-006
472
root  -34.617 39.3201 -13.8075 -8.97661 -58.5485 3.52887
RightUpLeg  11.1871 -26.4715 -6.52902
RightLeg  34.3232 -0.443013 -0.563864
RightFoot  -13.7544 0.136727 11.5965
RightToes  0.00048216 0.542163 -0.142577
Spine  17.8237 0.748788 5.63841
Spine1  12.5685 5.26717 -10.924
HEad  -5.89236 44.6877 -22.253
LeftShoulder1  8.50618 -12.7075 -45.7509
LeftArm  -15.7168 26.3157 -20.7748
LeftForeArm  17.0366 -12.0559 -2.99266
LeftHand  -0.25398 0.0180481 5.50724
RightShoulder  5.29384 9.70219 34.1367
RightArm  0.634936 -17.6784 34.9132
RightForeArm  -16.9391 26.1012 6.43407
RightHand  -1.09278 1.15385 -19.4077
LeftUpLeg  -8.53322 3.07978 -8.09284
LeftLeg  -2.82884 49.9419 -12.8229
LeftFoot  -2.97193 -1.32727 18.1729
LeftToes  1.06246e-005 4.65855e-005 -8.185e-006
473
root  -33.2244 39.0951 -13.678 -7.7966 -61.1747 0.971451
RightUpLeg  13.6114 -25.1875 -5.18395
RightLeg  28.6252 -1.86236 -1.35791
RightFoot  -19.6354 0.419247 7.5314
RightToes  0.00048216 0.542163 -0.142577
Spine  19.0901 0.24426 9.17446
Spine1  11.9818 5.40535 -11.4314
HEad  -7.4045 41.369 -23.1603
LeftShoulder1  8.57335 -12.7498 -45.9996
LeftArm  -16.1278 27.0565 -22.0077
LeftForeArm  18.0256 -12.0831 -2.87984
LeftHand  -0.25398 0.0180481 5.50724
RightShoulder  5.14083 9.56901 33.3814
RightArm  -1.0577 -16.2857 34.3547
RightForeArm  -16.8849 26.7619 6.58956
RightHand  -1.21044 1.62964 -20.0524
LeftUpLeg  -8.69054 2.60152 -7.08418
LeftLeg  -6.28669 51.7036 -15.5486
LeftFoot  -0.776087 -1.98348 21.2017
LeftToes  1.06246e-005 4.65855e-005 -8.185e-006
474
root  -31.7027 38.9023 -13.568 -4.98546 -62.7634 -3.40468
RightUpLeg  13.8939 -25.5798 -3.8616
RightLeg  26.2895 -2.2879 -1.47084
RightFoot  -22.517 0.266004 4.21192
RightToes  0.00048216 0.542163 -0.142577
Spine  20.9482 -0.721178 13.3926
Spine1  11.5815 5.18255 -11.5537
HEad  -8.98508 37.7074 -24.0998
LeftShoulder1  8.74379 -12.8887 -46.5326
LeftArm  -16.3082 26.6653 -22.987
LeftForeArm  19.2493 -12.5625 -2.90818
LeftHand  -0.25398 0.0180481 5.50724
RightShoulder  5.05179 9.47725 32.9751
RightArm  -3.08685 -14.8685 33.272
RightForeArm  -17.0228 27.454 6.76348
RightHand  -1.43293 2.57639 -20.933
LeftUpLeg  -9.55241 3.413 -5.54591
LeftLeg  -5.34818 47.6438 -14.6515
LeftFoot  2.09717 -2.45083 20.5772
LeftToes  1.06246e-005 4.65855e-005 -8.185e-006
